<?xml version="1.0" standalone="no"?>
<!DOCTYPE svg PUBLIC "-//W3C//DTD SVG 20010904//EN"
 "http://www.w3.org/TR/2001/REC-SVG-20010904/DTD/svg10.dtd">
<svg version="1.0" xmlns="http://www.w3.org/2000/svg"
 width="339.000000pt" height="189.000000pt" viewBox="0 0 339.000000 189.000000"
 preserveAspectRatio="xMidYMid meet">
<metadata>
Created by potrace 1.16, written by Peter Selinger 2001-2019
</metadata>
<g transform="translate(0.000000,189.000000) scale(0.100000,-0.100000)"
fill="#000000" stroke="none">
<path d="M762 1706 c-34 -12 -82 -51 -82 -66 0 -4 12 -11 27 -15 21 -5 24 -8
13 -15 -10 -6 -20 -4 -31 6 -15 14 -21 14 -49 -1 -18 -9 -54 -23 -81 -31 -50
-15 -67 -28 -49 -39 5 -3 10 -1 10 4 0 6 9 11 20 11 17 0 19 -3 10 -19 -7 -14
-16 -17 -32 -13 -22 5 -22 5 -7 -19 15 -22 25 -24 125 -31 60 -3 123 -4 140
-1 30 4 31 3 87 -114 67 -140 87 -201 87 -264 0 -54 -9 -64 -72 -78 -69 -16
-100 -30 -130 -58 -34 -33 -52 -112 -43 -191 9 -81 13 -91 33 -85 14 3 17 17
17 83 0 63 4 84 21 107 29 40 98 71 175 79 58 6 69 4 87 -14 27 -27 56 -108
101 -281 26 -98 43 -146 55 -153 15 -9 17 -6 12 24 -5 28 -46 390 -46 403 0 3
83 5 185 5 l185 0 0 49 c0 27 4 61 10 75 8 22 16 26 52 27 43 1 43 1 11 10
-32 9 -83 60 -83 84 0 15 -22 25 -56 25 -13 0 -24 5 -24 10 0 6 7 10 15 10 11
0 15 11 15 39 0 39 0 39 -47 45 -58 9 -134 32 -188 58 -60 30 -111 84 -167
178 -54 90 -82 126 -110 141 -15 8 -16 5 -8 -22 16 -54 -27 -189 -60 -189 -17
0 -39 43 -46 90 -4 25 -14 53 -22 63 -14 15 -13 17 1 17 18 0 37 -29 37 -57 0
-10 5 -35 11 -57 9 -32 13 -36 24 -25 35 38 46 148 19 187 -12 18 -24 22 -67
21 -29 0 -67 -6 -85 -13z"/>
<path d="M2166 1562 c5 -46 2 -68 -13 -103 -26 -57 -88 -117 -159 -153 -50
-25 -55 -31 -41 -41 22 -16 21 -25 -2 -25 -13 0 -21 8 -23 22 -2 17 -16 27
-51 40 -56 21 -67 18 -67 -23 0 -22 5 -29 19 -29 11 0 23 -5 27 -12 5 -8 -3
-9 -31 -5 -41 7 -57 17 -37 24 6 3 12 18 12 34 0 22 -5 29 -19 29 -26 0 -35
-58 -13 -83 13 -14 13 -23 3 -58 -7 -23 -11 -42 -9 -44 2 -1 28 -15 58 -30 30
-15 83 -55 117 -88 l63 -60 17 39 c9 23 16 66 17 106 0 57 -4 72 -27 105 l-27
38 33 11 c70 24 135 64 174 107 62 68 70 146 21 221 -35 54 -49 47 -42 -22z"/>
<path d="M2710 1275 c-13 -14 -31 -25 -40 -25 -19 0 -70 -37 -70 -50 0 -5 10
-10 22 -12 21 -3 21 -4 -11 -41 -68 -76 -162 -110 -169 -60 -2 16 3 23 26 27
43 10 104 64 100 90 -2 17 -9 21 -40 20 -47 -2 -98 -39 -130 -96 -25 -44 -69
-83 -87 -77 -7 3 0 21 19 45 33 46 48 98 31 108 -12 8 -47 -8 -78 -37 -37 -33
-34 -16 8 47 21 32 39 62 39 67 0 21 -31 6 -59 -28 -94 -116 -111 -139 -111
-148 1 -5 14 6 30 25 17 19 30 31 30 28 0 -17 -44 -105 -71 -143 -31 -44 -51
-125 -30 -125 6 0 25 28 42 61 l30 61 48 -6 c44 -6 53 -3 99 28 47 32 52 33
57 15 17 -52 82 -47 148 12 l45 39 -5 -40 c-6 -46 7 -57 50 -41 30 11 107 78
107 93 0 5 -17 -4 -37 -21 -68 -56 -94 -31 -53 49 14 27 27 40 41 40 11 0 31
12 45 27 22 24 24 29 10 39 -14 10 -15 13 -1 24 8 7 15 16 15 21 0 17 -27 9
-50 -16z"/>
</g>
</svg>
